<?xml version="1.0" encoding="utf-8"?>
<!-- Svg Vector Icons : http://www.sfont.cn -->
<!DOCTYPE svg PUBLIC "-//W3C//DTD SVG 1.1//EN" "http://www.w3.org/Graphics/SVG/1.1/DTD/svg11.dtd">
<svg height="512" width="512" version="1.1" xmlns="http://www.w3.org/2000/svg" xmlns:xlink="http://www.w3.org/1999/xlink" x="0px" y="0px" viewBox="0 0 1000 1000" enable-background="new 0 0 1000 1000" xml:space="preserve">
<metadata> Svg Vector Icons : http://www.sfont.cn </metadata>
<g><g transform="translate(0.000000,512.000000) scale(0.100000,-0.100000)"><path d="M4530.6,5000.4C2374.2,4795.5,574,3152.4,185.2,1030.5c-300.7-1625.9,203-3240.3,1373.1-4399c1300.4-1290.8,3226.9-1742.7,4973.5-1166.3c739.2,243.2,1382.7,639.6,1932.3,1189.3c884.8,884.8,1384.6,2033.8,1432.5,3292.1c63.2,1715.9-773.7,3328.4-2225.3,4282.1C6767.4,4822.3,5626,5103.9,4530.6,5000.4z M5679.6,4353.1c915.4-153.2,1692.9-553.4,2347.9-1206.5c553.5-553.5,923.1-1196.9,1116.5-1940c109.1-415.6,134.1-624.3,134.1-1078.2c1.9-459.6-26.8-691.4-134.1-1101.2c-388.8-1486.1-1566.6-2663.9-3052.7-3052.7c-409.8-107.2-641.6-136-1101.2-134.1c-453.9,0-662.6,24.9-1078.2,134.1c-743.1,193.4-1386.5,563-1940,1116.5C1309.4-2242.4,909.1-1453.4,754-503.5c-46,294.9-46,951.8,1.9,1244.8C911,1696.9,1309.4,2482.1,1972,3146.6c725.8,725.8,1648.9,1156.7,2683.1,1250.5C4861.9,4416.3,5455.5,4389.5,5679.6,4353.1z"/><path d="M5480.5,578.5C4748.9-222,4143.7-871.2,4138-863.6c-7.7,9.6-218.3,256.6-469.2,551.5c-249,294.9-461.5,538.1-471.1,542c-26.8,11.5-459.6-363.9-450-390.7C2762.9-199,4124.6-1798.1,4138-1792.4c23,9.6,3121.6,3406.9,3121.6,3422.3c0,15.3-409.8,390.7-434.7,398.3C6815.3,2032.1,6212,1379,5480.5,578.5z"/></g></g>
</svg>